<svg width="16" height="13" viewBox="0 0 16 13" fill="none" xmlns="http://www.w3.org/2000/svg">
<path d="M3.07443 1V0.25C2.85474 0.25 2.6461 0.346324 2.5036 0.513534C2.3611 0.680744 2.29908 0.902025 2.33392 1.11894L3.07443 1ZM15 1L15.7405 1.11894C15.7753 0.902024 15.7133 0.680744 15.5708 0.513534C15.4283 0.346324 15.2197 0.25 15 0.25V1ZM13.8642 8.07141V8.82141C14.2325 8.82141 14.5463 8.55399 14.6047 8.19034L13.8642 8.07141ZM4.2102 8.07141L3.46969 8.19034C3.5281 8.55399 3.8419 8.82141 4.2102 8.82141V8.07141ZM4.06142 1.75003C4.47563 1.75003 4.81142 1.41425 4.81142 1.00003C4.81142 0.585819 4.47563 0.250032 4.06142 0.250032V1.75003ZM1 0.250032C0.585786 0.250032 0.25 0.585819 0.25 1.00003C0.25 1.41425 0.585786 1.75003 1 1.75003V0.250032ZM3.07443 1.75H15V0.25H3.07443V1.75ZM14.2595 0.881064L13.1237 7.95247L14.6047 8.19034L15.7405 1.11894L14.2595 0.881064ZM13.8642 7.32141H4.2102V8.82141H13.8642V7.32141ZM4.95071 7.95247L3.81494 0.881064L2.33392 1.11894L3.46969 8.19034L4.95071 7.95247ZM5.59213 12.75C6.44747 12.75 7.10748 12.0438 7.10748 11.2143H5.60748C5.60748 11.2307 5.6017 11.2408 5.59607 11.2465C5.59469 11.248 5.59348 11.2489 5.59262 11.2495C5.59219 11.2498 5.59186 11.25 5.59165 11.2501C5.59154 11.2502 5.59146 11.2502 5.5914 11.2503C5.59135 11.2503 5.59132 11.2503 5.59132 11.2503C5.59132 11.2503 5.59133 11.2503 5.59134 11.2503C5.59135 11.2503 5.59137 11.2503 5.59139 11.2503C5.59144 11.2503 5.59151 11.2502 5.59159 11.2502C5.59176 11.2502 5.59197 11.2501 5.59219 11.2501C5.59272 11.2499 5.5928 11.25 5.59213 11.25V12.75ZM7.10748 11.2143C7.10748 10.3848 6.44747 9.67858 5.59213 9.67858V11.1786C5.5928 11.1786 5.59272 11.1786 5.59219 11.1785C5.59197 11.1785 5.59176 11.1784 5.59159 11.1784C5.59151 11.1783 5.59144 11.1783 5.59139 11.1783C5.59137 11.1783 5.59135 11.1783 5.59134 11.1783C5.59133 11.1783 5.59132 11.1783 5.59132 11.1783C5.59132 11.1783 5.59135 11.1783 5.5914 11.1783C5.59146 11.1783 5.59154 11.1784 5.59165 11.1784C5.59186 11.1786 5.59219 11.1788 5.59262 11.179C5.59349 11.1796 5.59469 11.1806 5.59607 11.182C5.6017 11.1878 5.60748 11.1978 5.60748 11.2143H7.10748ZM5.59213 9.67858C4.73678 9.67858 4.07677 10.3848 4.07677 11.2143H5.57677C5.57677 11.1978 5.58256 11.1878 5.58819 11.182C5.58957 11.1806 5.59077 11.1796 5.59164 11.179C5.59206 11.1788 5.59239 11.1786 5.59261 11.1784C5.59272 11.1784 5.5928 11.1783 5.59285 11.1783C5.59291 11.1783 5.59293 11.1783 5.59293 11.1783C5.59293 11.1783 5.59293 11.1783 5.59292 11.1783C5.5929 11.1783 5.59289 11.1783 5.59286 11.1783C5.59282 11.1783 5.59275 11.1783 5.59267 11.1784C5.59249 11.1784 5.59229 11.1785 5.59207 11.1785C5.59154 11.1786 5.59146 11.1786 5.59213 11.1786V9.67858ZM4.07677 11.2143C4.07677 12.0438 4.73678 12.75 5.59213 12.75V11.25C5.59146 11.25 5.59154 11.2499 5.59207 11.2501C5.59229 11.2501 5.59249 11.2502 5.59267 11.2502C5.59275 11.2502 5.59282 11.2503 5.59286 11.2503C5.59289 11.2503 5.5929 11.2503 5.59292 11.2503C5.59293 11.2503 5.59293 11.2503 5.59293 11.2503C5.59293 11.2503 5.59291 11.2503 5.59285 11.2503C5.5928 11.2502 5.59272 11.2502 5.59261 11.2501C5.59239 11.25 5.59207 11.2498 5.59164 11.2495C5.59077 11.2489 5.58957 11.248 5.58819 11.2465C5.58256 11.2408 5.57677 11.2307 5.57677 11.2143H4.07677ZM12.4803 12.75C13.3357 12.75 13.9957 12.0438 13.9957 11.2143H12.4957C12.4957 11.2307 12.4899 11.2408 12.4843 11.2465C12.4829 11.248 12.4817 11.2489 12.4808 11.2495C12.4804 11.2498 12.4801 11.25 12.4798 11.2501C12.4797 11.2502 12.4796 11.2502 12.4796 11.2503C12.4795 11.2503 12.4795 11.2503 12.4795 11.2503C12.4795 11.2503 12.4795 11.2503 12.4795 11.2503C12.4795 11.2503 12.4796 11.2503 12.4796 11.2503C12.4796 11.2503 12.4797 11.2502 12.4798 11.2502C12.48 11.2502 12.4802 11.2501 12.4804 11.2501C12.4809 11.2499 12.481 11.25 12.4803 11.25V12.75ZM13.9957 11.2143C13.9957 10.3848 13.3357 9.67858 12.4803 9.67858V11.1786C12.481 11.1786 12.4809 11.1786 12.4804 11.1785C12.4802 11.1785 12.48 11.1784 12.4798 11.1784C12.4797 11.1783 12.4796 11.1783 12.4796 11.1783C12.4796 11.1783 12.4795 11.1783 12.4795 11.1783C12.4795 11.1783 12.4795 11.1783 12.4795 11.1783C12.4795 11.1783 12.4795 11.1783 12.4796 11.1783C12.4797 11.1783 12.4797 11.1784 12.4798 11.1784C12.4801 11.1786 12.4804 11.1788 12.4808 11.179C12.4817 11.1796 12.4829 11.1806 12.4843 11.182C12.4899 11.1878 12.4957 11.1978 12.4957 11.2143H13.9957ZM12.4803 9.67858C11.625 9.67858 10.965 10.3848 10.965 11.2143H12.465C12.465 11.1978 12.4707 11.1878 12.4764 11.182C12.4778 11.1806 12.479 11.1796 12.4798 11.179C12.4803 11.1788 12.4806 11.1786 12.4808 11.1784C12.4809 11.1784 12.481 11.1783 12.481 11.1783C12.4811 11.1783 12.4811 11.1783 12.4811 11.1783C12.4811 11.1783 12.4811 11.1783 12.4811 11.1783C12.4811 11.1783 12.4811 11.1783 12.4811 11.1783C12.481 11.1783 12.4809 11.1783 12.4809 11.1784C12.4807 11.1784 12.4805 11.1785 12.4803 11.1785C12.4797 11.1786 12.4796 11.1786 12.4803 11.1786V9.67858ZM10.965 11.2143C10.965 12.0438 11.625 12.75 12.4803 12.75V11.25C12.4796 11.25 12.4797 11.2499 12.4803 11.2501C12.4805 11.2501 12.4807 11.2502 12.4809 11.2502C12.4809 11.2502 12.481 11.2503 12.4811 11.2503C12.4811 11.2503 12.4811 11.2503 12.4811 11.2503C12.4811 11.2503 12.4811 11.2503 12.4811 11.2503C12.4811 11.2503 12.4811 11.2503 12.481 11.2503C12.481 11.2502 12.4809 11.2502 12.4808 11.2501C12.4806 11.25 12.4803 11.2498 12.4798 11.2495C12.479 11.2489 12.4778 11.248 12.4764 11.2465C12.4707 11.2408 12.465 11.2307 12.465 11.2143H10.965ZM4.06142 0.250032H1V1.75003H4.06142V0.250032Z" fill="white"/>
</svg>
