<svg width="20" height="20" viewBox="0 0 20 20" fill="none" xmlns="http://www.w3.org/2000/svg">
<path d="M10 0.000732422C4.47715 0.000732422 0 4.47788 0 10.0007C0 15.5236 4.47715 20.0007 10 20.0007C15.5228 20.0007 20 15.5236 20 10.0007C19.9936 4.48055 15.5202 0.00716139 10 0.000732422Z" fill="#008BFA" fill-opacity="0.1"/>
<path d="M15.7725 6.83411L10.0683 14.5749C9.93228 14.7554 9.72942 14.8737 9.50533 14.9032C9.28124 14.9326 9.05472 14.8708 8.87665 14.7316L4.80331 11.4749C4.44387 11.1873 4.38567 10.6627 4.67331 10.3033C4.96096 9.94383 5.48554 9.88562 5.84498 10.1733L9.24165 12.8908L14.4308 5.84827C14.601 5.59293 14.8977 5.45176 15.2032 5.4808C15.5086 5.50985 15.7734 5.70441 15.8924 5.98725C16.0114 6.27008 15.9653 6.59543 15.7725 6.83411Z" fill="#008BFA"/>
</svg>
