<svg width="24" height="24" viewBox="0 0 24 24" xmlns="http://www.w3.org/2000/svg">
<g clip-path="url(#clip0)">
<path d="M3.58002 21.196H17.839L17.158 18.991L18.787 20.389L20.28 21.727L23 24V2.475C22.932 1.137 21.78 0 20.352 0L3.58502 0.003C2.15802 0.003 1.00002 1.142 1.00002 2.48V18.72C1.00002 20.131 2.15602 21.196 3.58002 21.196ZM14.128 5.683L14.095 5.695L14.107 5.683H14.128ZM6.49702 6.952C8.33002 5.618 10.029 5.682 10.029 5.682L10.166 5.817C7.92302 6.352 6.90602 7.354 6.90602 7.354C6.90602 7.354 7.17802 7.221 7.65302 7.018C10.674 5.83 13.973 5.916 17.027 7.42C17.027 7.42 16.008 6.483 13.903 5.883L14.089 5.7C14.38 5.701 15.92 5.755 17.568 6.96C17.568 6.96 19.412 10.11 19.412 13.98C19.351 13.906 18.268 15.646 15.481 15.706C15.481 15.706 15.009 15.172 14.673 14.706C16.303 14.238 16.913 13.302 16.913 13.302C16.378 13.639 15.89 13.839 15.494 14.039C14.885 14.307 14.275 14.439 13.666 14.574C10.782 15.042 9.16302 14.259 7.63302 13.638L7.11002 13.372C7.11002 13.372 7.71902 14.308 9.28402 14.776C8.87302 15.245 8.46601 15.778 8.46601 15.778C5.68001 15.712 4.66402 13.972 4.66402 13.972C4.66402 10.096 6.49702 6.952 6.49702 6.952Z"/>
<path d="M14.308 12.7709C15.019 12.7709 15.598 12.1709 15.598 11.4309C15.598 10.6959 15.022 10.0959 14.308 10.0959V10.0989C13.6 10.0989 13.02 10.6969 13.018 11.4369C13.018 12.1709 13.597 12.7709 14.308 12.7709Z"/>
<path d="M9.68998 12.7709C10.401 12.7709 10.98 12.1709 10.98 11.4309C10.98 10.6959 10.405 10.0959 9.69398 10.0959L9.68998 10.0989C8.97898 10.0989 8.39999 10.6969 8.39999 11.4369C8.39999 12.1709 8.97898 12.7709 9.68998 12.7709Z"/>
</g>
<defs>
<clipPath id="clip0">
<rect width="24" height="24"/>
</clipPath>
</defs>
</svg>
