<svg width="52" height="16" viewBox="0 0 52 16" xmlns="http://www.w3.org/2000/svg">
<g clip-path="url(#clip0)">
<path d="M0.026001 11.0241V0.25354H1.94485V11.0241H0.026001Z" />
<path d="M6.85669 3.21057C4.39647 3.21057 2.69397 5.07567 2.69397 7.21047C2.69397 9.59302 4.5461 11.2343 6.87581 11.2343C9.08684 11.2343 11.0055 9.62322 11.0055 7.20531C11.0055 5.17209 9.41563 3.21057 6.85669 3.21057ZM6.8341 5.03571C8.1216 5.03571 9.06928 6.02389 9.06928 7.21732C9.06928 8.48269 8.02444 9.40577 6.86886 9.40577C5.50342 9.40577 4.64411 8.33869 4.64411 7.22074C4.64411 5.99534 5.61428 5.03571 6.8341 5.03571Z" />
<path d="M15.8266 3.21057C13.3664 3.21057 11.6638 5.07567 11.6638 7.21047C11.6638 9.59302 13.516 11.2343 15.8457 11.2343C18.0567 11.2343 19.9754 9.62322 19.9754 7.20531C19.9754 5.78147 19.35 5.14971 19.35 5.14971L19.8819 4.96988V3.43437H17.1565C17.1565 3.43437 16.5657 3.21057 15.8266 3.21057ZM15.804 5.03571C17.0915 5.03571 18.0392 6.02389 18.0392 7.21732C18.0392 8.48269 16.9943 9.40577 15.8387 9.40577C14.4733 9.40577 13.614 8.33869 13.614 7.22074C13.614 5.99534 14.5842 5.03571 15.804 5.03571Z" />
<path d="M18.0256 11.5505C18.0256 12.8159 16.9808 13.7458 15.8252 13.7458C14.4598 13.7458 13.597 12.6685 13.597 11.5505H11.6503C11.6503 13.9331 13.5025 15.5744 15.8322 15.5744C18.0432 15.5744 19.9619 13.9684 19.9619 11.5505H18.0256Z" />
<path d="M20.744 11.0242V3.43433H22.6628V11.0242H20.744Z" />
<path d="M24.526 11.0241V5.13425H23.4971V3.43421H24.526V1.10352H26.4449V3.43421H27.5017V5.13425H26.4449V11.0241H24.526Z" />
<path d="M22.9701 1.27898C22.9701 1.97091 22.4012 2.53184 21.6995 2.53184C20.9977 2.53184 20.4288 1.97091 20.4288 1.27898C20.4288 0.587046 20.9977 0.026123 21.6995 0.026123C22.4012 0.026123 22.9701 0.587046 22.9701 1.27898Z" />
<path d="M31.8156 3.20532C29.3437 3.20532 27.7502 5.0714 27.7502 7.2789C27.7502 9.56011 29.349 11.2394 31.8556 11.2394C34.1938 11.2394 35.3439 9.79982 35.3439 9.79982L34.0612 8.53336C34.0612 8.53336 33.0927 9.56332 31.8799 9.56332C30.8689 9.56332 30.0606 9.00694 29.7786 7.98667H35.7576V7.46569C35.7576 5.38692 34.5373 3.20532 31.8156 3.20532ZM31.7548 4.87108C32.6387 4.87108 33.5427 5.33736 33.7449 6.45116H29.7264C29.8856 5.66823 30.5802 4.87108 31.7548 4.87108Z" />
<path d="M40.5573 11.2404C38.0784 11.2404 36.3893 9.3789 36.3893 7.18401C36.3893 4.91888 38.2983 3.20398 40.5493 3.20398C42.7254 3.20398 43.8393 4.71866 43.8393 4.71866L42.5007 6.0325C42.5007 6.0325 41.7253 5.04469 40.5402 5.04469C39.2267 5.04469 38.3286 6.03541 38.3286 7.21306C38.3286 8.45651 39.284 9.41053 40.5254 9.41053C41.7296 9.41053 42.4988 8.42431 42.4988 8.42431L43.8508 9.73745C43.8508 9.73745 42.7478 11.2404 40.5573 11.2404Z" />
<path d="M44.5489 11.0295V0.226074H46.4677V4.19532C46.4677 4.19532 47.2024 3.20384 48.8007 3.20384C50.8099 3.20384 51.974 4.67654 51.974 6.56009V11.0295H50.0551V6.84604C50.0551 5.58064 49.2561 5.05566 48.371 5.05566C47.3625 5.05566 46.4677 5.62155 46.4677 6.94397V11.0295H44.5489Z" />
</g>
<defs>
<clipPath id="clip0">
<rect width="52" height="15.6" fill="white"/>
</clipPath>
</defs>
</svg>
